<?xml version="1.0" encoding="UTF-8" standalone="yes"?>
<svg xmlns="http://www.w3.org/2000/svg" xmlns:xlink="http://www.w3.org/1999/xlink" width="45px" height="45px" viewBox="0 0 45 45" version="1.1" fill="#000000">
  <g id="surface38227">
    <path style=" stroke:none;fill-rule:nonzero;fill:#000000;fill-opacity:1;" d="M 38.140625 5 C 37.855469 4.679688 37.449219 4.5 37.023438 4.5 L 7.976562 4.5 C 7.550781 4.5 7.144531 4.679688 6.859375 5 C 6.574219 5.316406 6.4375 5.742188 6.484375 6.164062 L 9.789062 35.898438 C 9.851562 36.503906 10.28125 37.007812 10.867188 37.175781 L 22.085938 40.382812 C 22.222656 40.421875 22.359375 40.441406 22.5 40.441406 C 22.636719 40.441406 22.777344 40.421875 22.910156 40.382812 L 34.132812 37.175781 C 34.714844 37.007812 35.140625 36.503906 35.210938 35.898438 L 38.515625 6.164062 C 38.5625 5.742188 38.425781 5.316406 38.140625 5 Z M 30.945312 15.644531 L 17.546875 15.644531 L 17.867188 19.457031 L 30.621094 19.457031 L 29.664062 30.722656 L 22.503906 33 L 22.433594 32.976562 L 15.355469 30.71875 L 14.96875 26.128906 L 18.433594 26.128906 L 18.585938 27.914062 L 22.542969 28.785156 L 26.429688 27.910156 L 26.839844 23.09375 L 14.707031 23.09375 L 13.765625 12 L 31.253906 12 Z M 30.945312 15.644531 "/>
  </g>
</svg>
