<?xml version="1.0" encoding="UTF-8"?>
<svg xmlns="http://www.w3.org/2000/svg" xmlns:xlink="http://www.w3.org/1999/xlink" width="40px" height="40px" viewBox="0 0 40 40" version="1.1">
<g id="surface443179">
<path style=" stroke:none;fill-rule:nonzero;fill:rgb(72.941176%,87.843137%,74.117647%);fill-opacity:1;" d="M 4 33.5 C 3.171875 33.5 2.5 32.828125 2.5 32 L 2.5 8 C 2.5 7.171875 3.171875 6.5 4 6.5 L 36 6.5 C 36.828125 6.5 37.5 7.171875 37.5 8 L 37.5 32 C 37.5 32.828125 36.828125 33.5 36 33.5 Z M 4 33.5 "/>
<path style=" stroke:none;fill-rule:nonzero;fill:rgb(36.862745%,61.176471%,46.27451%);fill-opacity:1;" d="M 36 7 C 36.550781 7 37 7.449219 37 8 L 37 32 C 37 32.550781 36.550781 33 36 33 L 4 33 C 3.449219 33 3 32.550781 3 32 L 3 8 C 3 7.449219 3.449219 7 4 7 L 36 7 M 36 6 L 4 6 C 2.894531 6 2 6.894531 2 8 L 2 32 C 2 33.105469 2.894531 34 4 34 L 36 34 C 37.105469 34 38 33.105469 38 32 L 38 8 C 38 6.894531 37.105469 6 36 6 Z M 36 6 "/>
<path style=" stroke:none;fill-rule:nonzero;fill:rgb(26.666667%,50.980392%,36.470588%);fill-opacity:1;" d="M 9.921875 15.800781 L 9.921875 19.3125 L 11.699219 19.3125 L 11.699219 15.800781 L 13.402344 15.800781 L 13.402344 24.5625 L 11.699219 24.5625 L 11.699219 20.898438 L 9.921875 20.898438 L 9.921875 24.5625 L 8.21875 24.5625 L 8.21875 15.800781 Z M 16.1875 17.371094 L 14.640625 17.371094 L 14.640625 15.800781 L 19.449219 15.800781 L 19.449219 17.371094 L 17.890625 17.371094 L 17.890625 24.5625 L 16.1875 24.5625 Z M 26.027344 21.492188 C 25.976562 20.660156 25.925781 19.53125 25.9375 18.597656 L 25.910156 18.597656 C 25.753906 19.53125 25.519531 20.609375 25.351562 21.285156 L 24.585938 24.421875 L 23.390625 24.421875 L 22.660156 21.339844 C 22.492188 20.636719 22.257812 19.542969 22.113281 18.597656 L 22.089844 18.597656 C 22.0625 19.542969 21.996094 20.648438 21.960938 21.519531 L 21.804688 24.5625 L 20.347656 24.5625 L 20.972656 15.800781 L 22.777344 15.800781 L 23.480469 18.972656 C 23.714844 20.078125 23.933594 21.054688 24.089844 22.039062 L 24.128906 22.039062 C 24.261719 21.066406 24.453125 20.078125 24.675781 18.972656 L 25.378906 15.800781 L 27.171875 15.800781 L 27.703125 24.5625 L 26.183594 24.5625 Z M 29.277344 15.800781 L 30.980469 15.800781 L 30.980469 23.117188 L 33.214844 23.117188 L 33.214844 24.5625 L 29.277344 24.5625 Z M 29.277344 15.800781 "/>
</g>
</svg>
