<?xml version="1.0" encoding="UTF-8"?>
<svg xmlns="http://www.w3.org/2000/svg" xmlns:xlink="http://www.w3.org/1999/xlink" width="64px" height="64px" viewBox="0 0 64 64" version="1.1">
<g id="surface51230">
<path style=" stroke:none;fill-rule:nonzero;fill:rgb(100%,100%,100%);fill-opacity:1;" d="M 11 9.5 L 11 54.5 C 11 57.25 13.25 59.5 16 59.5 L 47.898438 59.5 C 50.648438 59.5 52.898438 57.25 52.898438 54.5 L 52.949219 14.5 C 53 9 48.5 4.5 43 4.5 L 16 4.5 C 13.25 4.5 11 6.75 11 9.5 Z M 11 9.5 "/>
<path style=" stroke:none;fill-rule:nonzero;fill:rgb(44.313725%,76.078431%,100%);fill-opacity:1;" d="M 39.550781 42.550781 C 39.148438 42.550781 38.75 42.398438 38.449219 42.050781 C 37.898438 41.449219 37.949219 40.5 38.550781 39.949219 L 41.851562 37.050781 L 38.550781 34.148438 C 37.949219 33.601562 37.898438 32.648438 38.449219 32.050781 C 39 31.449219 39.949219 31.398438 40.550781 31.949219 L 45.101562 36 C 45.398438 36.300781 45.601562 36.699219 45.601562 37.101562 C 45.601562 37.5 45.398438 37.949219 45.101562 38.199219 L 40.550781 42.25 C 40.300781 42.398438 39.949219 42.550781 39.550781 42.550781 Z M 24.449219 42.550781 C 24.101562 42.550781 23.75 42.449219 23.449219 42.148438 L 18.898438 38.101562 C 18.601562 37.800781 18.398438 37.398438 18.398438 37 C 18.398438 36.601562 18.601562 36.148438 18.898438 35.898438 L 23.449219 31.851562 C 24.050781 31.300781 25 31.351562 25.550781 31.949219 C 26.101562 32.550781 26.050781 33.5 25.449219 34.050781 L 22.148438 37 L 25.449219 39.898438 C 26.050781 40.449219 26.101562 41.398438 25.550781 42 C 25.25 42.351562 24.851562 42.550781 24.449219 42.550781 Z M 29.5 46 C 29.351562 46 29.199219 46 29.050781 45.898438 C 28.25 45.648438 27.851562 44.800781 28.101562 44 L 33.101562 29 C 33.351562 28.199219 34.199219 27.800781 35 28.050781 C 35.800781 28.300781 36.199219 29.148438 35.949219 29.949219 L 30.949219 44.949219 C 30.699219 45.601562 30.148438 46 29.5 46 Z M 29.5 46 "/>
<path style=" stroke:none;fill-rule:nonzero;fill:rgb(26.666667%,29.411765%,32.941176%);fill-opacity:1;" d="M 15 61 L 46.898438 61 C 51.25 61 54.398438 58.25 54.398438 54.5 L 54.449219 21 C 54.449219 20.148438 53.800781 19.5 52.949219 19.5 C 52.101562 19.5 51.449219 20.148438 51.449219 21 L 51.398438 54.5 C 51.398438 56.601562 49.601562 58 46.898438 58 L 15 58 C 14.148438 58 12.5 56.5 12.5 54.5 L 12.5 9.5 C 12.5 7.550781 14.050781 6 16 6 L 41.5 6 L 41.5 9.5 C 41.5 13.101562 44.398438 16 48 16 L 52.800781 16 C 52.851562 16 52.898438 16 53 16 C 53.601562 16 54.148438 15.601562 54.398438 15.101562 C 54.5 14.898438 54.550781 14.699219 54.550781 14.5 C 54.550781 14.449219 54.550781 14.351562 54.550781 14.300781 C 54.5 11.300781 53.300781 8.5 51.199219 6.351562 C 48.949219 4.199219 46.101562 3 43 3 L 16 3 C 12.398438 3 9.5 5.898438 9.5 9.5 L 9.5 54.5 C 9.5 58.148438 12.449219 61 15 61 Z M 51.351562 13 L 48 13 C 46.050781 13 44.5 11.449219 44.5 9.5 L 44.5 6.148438 C 46.199219 6.449219 47.75 7.25 49 8.5 C 50.25 9.75 51.050781 11.300781 51.351562 13 Z M 51.351562 13 "/>
</g>
</svg>
